<svg width="27" height="22" viewBox="0 0 27 22" fill="none" xmlns="http://www.w3.org/2000/svg">
<path d="M16.0026 18.503V3.50043C16.0026 2.83727 15.7391 2.20128 15.2702 1.73236C14.8013 1.26344 14.1653 1 13.5021 1H3.50043C2.83727 1 2.20128 1.26344 1.73236 1.73236C1.26344 2.20128 1 2.83727 1 3.50043V17.2528C1 17.5844 1.13172 17.9024 1.36618 18.1368C1.60064 18.3713 1.91864 18.503 2.25021 18.503H4.75064" stroke="#012BFE" stroke-width="2" stroke-linecap="round" stroke-linejoin="round"/>
<path d="M17.2527 18.5029H9.75146" stroke="#012BFE" stroke-width="2" stroke-linecap="round" stroke-linejoin="round"/>
<path d="M22.2535 18.5031H24.7539C25.0855 18.5031 25.4035 18.3714 25.638 18.1369C25.8724 17.9025 26.0042 17.5845 26.0042 17.2529V12.6896C26.0036 12.4059 25.9067 12.1308 25.7291 11.9095L21.3784 6.47106C21.2614 6.32463 21.1131 6.20636 20.9443 6.125C20.7755 6.04363 20.5906 6.00124 20.4032 6.00098H16.0024" stroke="#012BFE" stroke-width="2" stroke-linecap="round" stroke-linejoin="round"/>
<path d="M19.7529 21.0033C21.1338 21.0033 22.2533 19.8838 22.2533 18.5029C22.2533 17.1219 21.1338 16.0024 19.7529 16.0024C18.3719 16.0024 17.2524 17.1219 17.2524 18.5029C17.2524 19.8838 18.3719 21.0033 19.7529 21.0033Z" stroke="#012BFE" stroke-width="2" stroke-linecap="round" stroke-linejoin="round"/>
<path d="M7.25092 21.0033C8.63186 21.0033 9.75134 19.8838 9.75134 18.5029C9.75134 17.1219 8.63186 16.0024 7.25092 16.0024C5.86997 16.0024 4.75049 17.1219 4.75049 18.5029C4.75049 19.8838 5.86997 21.0033 7.25092 21.0033Z" stroke="#012BFE" stroke-width="2" stroke-linecap="round" stroke-linejoin="round"/>
</svg>
