<svg width="100" height="100" viewBox="0 0 100 100" fill="none" xmlns="http://www.w3.org/2000/svg">
<g clip-path="url(#clip0_690_2)">
<rect width="100" height="100" rx="6" fill="#5515D4"/>
<path d="M8.3335 50.0003C8.3335 34.2878 8.3335 26.4295 13.2168 21.5503C18.1002 16.6712 25.9543 16.667 41.6668 16.667H58.3335C74.046 16.667 81.9043 16.667 86.7835 21.5503C91.6627 26.4337 91.6668 34.2878 91.6668 50.0003V58.3337C91.6668 74.0462 91.6668 81.9045 86.7835 86.7837C81.9002 91.6628 74.046 91.667 58.3335 91.667H41.6668C25.9543 91.667 18.096 91.667 13.2168 86.7837C8.33766 81.9003 8.3335 74.0462 8.3335 58.3337V50.0003Z" stroke="white" stroke-width="3"/>
<path d="M29.167 16.667V10.417M70.8337 16.667V10.417M10.417 37.5003H89.5837" stroke="white" stroke-width="3" stroke-linecap="round"/>
<path d="M75 70.8333C75 71.9384 74.561 72.9982 73.7796 73.7796C72.9982 74.561 71.9384 75 70.8333 75C69.7283 75 68.6685 74.561 67.8871 73.7796C67.1056 72.9982 66.6667 71.9384 66.6667 70.8333C66.6667 69.7283 67.1056 68.6685 67.8871 67.8871C68.6685 67.1056 69.7283 66.6667 70.8333 66.6667C71.9384 66.6667 72.9982 67.1056 73.7796 67.8871C74.561 68.6685 75 69.7283 75 70.8333ZM75 54.1667C75 55.2717 74.561 56.3315 73.7796 57.1129C72.9982 57.8943 71.9384 58.3333 70.8333 58.3333C69.7283 58.3333 68.6685 57.8943 67.8871 57.1129C67.1056 56.3315 66.6667 55.2717 66.6667 54.1667C66.6667 53.0616 67.1056 52.0018 67.8871 51.2204C68.6685 50.439 69.7283 50 70.8333 50C71.9384 50 72.9982 50.439 73.7796 51.2204C74.561 52.0018 75 53.0616 75 54.1667ZM54.1667 70.8333C54.1667 71.9384 53.7277 72.9982 52.9463 73.7796C52.1649 74.561 51.1051 75 50 75C48.8949 75 47.8351 74.561 47.0537 73.7796C46.2723 72.9982 45.8333 71.9384 45.8333 70.8333C45.8333 69.7283 46.2723 68.6685 47.0537 67.8871C47.8351 67.1056 48.8949 66.6667 50 66.6667C51.1051 66.6667 52.1649 67.1056 52.9463 67.8871C53.7277 68.6685 54.1667 69.7283 54.1667 70.8333ZM54.1667 54.1667C54.1667 55.2717 53.7277 56.3315 52.9463 57.1129C52.1649 57.8943 51.1051 58.3333 50 58.3333C48.8949 58.3333 47.8351 57.8943 47.0537 57.1129C46.2723 56.3315 45.8333 55.2717 45.8333 54.1667C45.8333 53.0616 46.2723 52.0018 47.0537 51.2204C47.8351 50.439 48.8949 50 50 50C51.1051 50 52.1649 50.439 52.9463 51.2204C53.7277 52.0018 54.1667 53.0616 54.1667 54.1667ZM33.3333 70.8333C33.3333 71.9384 32.8943 72.9982 32.1129 73.7796C31.3315 74.561 30.2717 75 29.1667 75C28.0616 75 27.0018 74.561 26.2204 73.7796C25.439 72.9982 25 71.9384 25 70.8333C25 69.7283 25.439 68.6685 26.2204 67.8871C27.0018 67.1056 28.0616 66.6667 29.1667 66.6667C30.2717 66.6667 31.3315 67.1056 32.1129 67.8871C32.8943 68.6685 33.3333 69.7283 33.3333 70.8333ZM33.3333 54.1667C33.3333 55.2717 32.8943 56.3315 32.1129 57.1129C31.3315 57.8943 30.2717 58.3333 29.1667 58.3333C28.0616 58.3333 27.0018 57.8943 26.2204 57.1129C25.439 56.3315 25 55.2717 25 54.1667C25 53.0616 25.439 52.0018 26.2204 51.2204C27.0018 50.439 28.0616 50 29.1667 50C30.2717 50 31.3315 50.439 32.1129 51.2204C32.8943 52.0018 33.3333 53.0616 33.3333 54.1667Z" fill="white"/>
</g>
<defs>
<clipPath id="clip0_690_2">
<rect width="100" height="100" rx="6" fill="white"/>
</clipPath>
</defs>
</svg>
